<svg width="23" height="20" viewBox="0 0 23 20" fill="none" xmlns="http://www.w3.org/2000/svg">
<g id="Frame" clip-path="url(#clip0_191_984)">
<g id="Group">
<path id="Vector" d="M19.0393 5.41594C19.2067 5.41594 19.3484 5.41594 19.4964 5.41594C19.9793 5.42746 20.3076 5.70391 20.314 6.10131C20.314 6.4987 19.9922 6.78667 19.5093 6.79243C19.0265 6.80395 18.5436 6.79243 18.0286 6.79243C18.0286 6.98249 18.0221 7.14951 18.035 7.31653C18.0415 7.35685 18.1252 7.40868 18.1767 7.4202C19.3548 7.67362 20.2304 8.26107 20.7518 9.2632C21.1832 10.0868 21.6467 10.9046 22.1102 11.7167C22.2905 12.0392 22.3806 12.3675 22.3742 12.7304C22.3613 13.7325 22.3742 14.7289 22.3677 15.731C22.3613 16.8253 21.6209 17.6719 20.4557 17.9023C20.6231 16.8771 20.2947 16.0074 19.4192 15.3336C18.8269 14.8786 18.1251 14.677 17.3462 14.6943C15.8397 14.7289 14.1014 16.019 14.507 18.0002C12.5499 18.0002 10.5992 18.0002 8.62275 18.0002C8.83521 16.9808 8.5455 16.1053 7.69569 15.4027C7.08409 14.8959 6.34372 14.6482 5.50679 14.7058C3.62048 14.8325 2.40371 16.2493 2.71273 17.9714C2.59041 17.9541 2.47452 17.9426 2.36508 17.9195C1.27707 17.6949 0.652588 16.9808 0.652588 15.9786C0.652588 15.4257 0.659026 14.8728 0.659026 14.3142C0.665464 12.8455 2.00455 11.6591 3.64623 11.6649C3.85868 11.6649 3.99388 11.6073 4.13551 11.4633C4.95313 10.5936 5.80294 9.74699 6.61412 8.87157C7.27723 8.1574 8.12059 7.71393 9.11204 7.48932C9.31805 7.44324 9.36956 7.36837 9.35024 7.20135C9.33737 7.07464 9.35024 6.94793 9.35024 6.79243C8.93821 6.79243 8.55194 6.80395 8.16566 6.78667C7.80514 6.77515 7.50899 6.52174 7.45749 6.21073C7.40598 5.89397 7.60556 5.5772 7.94033 5.46777C8.05622 5.42746 8.19141 5.4217 8.32017 5.41594C8.51331 5.41018 8.70645 5.41594 8.92534 5.41594C8.93178 5.32379 8.93821 5.24892 8.93821 5.17405C8.93821 4.64994 8.93821 4.12584 8.93821 3.59598C8.94465 3.11795 9.2408 2.84726 9.78158 2.84726C11.0048 2.84726 12.228 2.84726 13.4512 2.84726C13.5349 2.84726 13.625 2.84726 13.7345 2.84726C13.7345 2.48442 13.7345 2.13885 13.7345 1.79329C13.7345 1.26343 14.0306 0.992737 14.6229 0.992737C15.7946 0.992737 16.9728 0.992737 18.1445 0.992737C18.7303 0.992737 19.0329 1.26919 19.0329 1.79329C19.0329 2.91637 19.0329 4.03945 19.0329 5.16253C19.0393 5.2374 19.0393 5.31803 19.0393 5.41594ZM13.8954 11.6476C16.0521 11.6476 18.1767 11.6476 20.3269 11.6476C20.2947 11.5785 20.269 11.5266 20.2432 11.4748C19.9213 10.8873 19.6059 10.2941 19.2647 9.71819C18.9041 9.10194 18.3183 8.7679 17.5329 8.76214C16.4062 8.75062 15.2796 8.76214 14.1529 8.76214C14.0692 8.76214 13.9856 8.7679 13.8954 8.77366C13.8954 9.74123 13.8954 10.6915 13.8954 11.6476ZM5.9832 11.6533C8.12703 11.6533 10.2194 11.6533 12.3246 11.6533C12.3246 10.6858 12.3246 9.73547 12.3246 8.76214C11.5585 8.76214 10.7988 8.75062 10.0455 8.76214C9.27299 8.77366 8.57769 9.02707 8.05622 9.51662C7.3416 10.1905 6.69137 10.9161 5.9832 11.6533ZM9.74939 14.0435C10.0327 14.0435 10.3095 14.0492 10.5928 14.0435C11.0305 14.032 11.3524 13.7555 11.3653 13.3869C11.3782 13.001 11.0756 12.6785 10.6378 12.667C10.052 12.6497 9.46612 12.6497 8.88027 12.667C8.45537 12.6785 8.14635 12.9953 8.15278 13.3639C8.15922 13.7382 8.47468 14.0262 8.90602 14.0377C9.18929 14.0492 9.47256 14.0435 9.74939 14.0435ZM10.9082 7.36837C12.7688 7.36837 14.61 7.36837 16.4513 7.36837C16.4513 7.17255 16.4513 6.99401 16.4513 6.80971C14.5972 6.80971 12.7559 6.80971 10.9082 6.80971C10.9082 6.99977 10.9082 7.17255 10.9082 7.36837Z" fill="#F7AA20"/>
<path id="Vector_2" d="M7.54763 17.407C7.54763 18.3285 6.70426 19.083 5.67419 19.083C4.63769 19.0887 3.78144 18.317 3.78788 17.3955C3.79432 16.4797 4.63769 15.7195 5.66132 15.7195C6.70426 15.7195 7.55407 16.474 7.54763 17.407Z" fill="#F7AA20"/>
<path id="Vector_3" d="M17.4815 15.7195C18.5115 15.7195 19.3485 16.4682 19.3549 17.3955C19.3614 18.3227 18.5115 19.0887 17.475 19.0887C16.4385 19.0887 15.5952 18.3285 15.6016 17.3897C15.608 16.4682 16.445 15.7195 17.4815 15.7195Z" fill="#F7AA20"/>
</g>
</g>
<defs>
<clipPath id="clip0_191_984">
<rect width="21.7152" height="18.096" fill="white" transform="translate(0.652588 0.992737)"/>
</clipPath>
</defs>
</svg>
