<svg width="24" height="15" viewBox="0 0 24 15" fill="none" xmlns="http://www.w3.org/2000/svg">
<g clip-path="url(#clip0_280_992)">
<path d="M21.9048 12.5834C15.25 12.5834 8.71432 12.5834 2.10718 12.5834C2.23813 9.05619 3.59527 6.21241 6.44051 4.28402C9.96432 1.87962 13.6786 1.80639 17.2738 4.06432C20.2977 5.96831 21.7619 8.88532 21.9048 12.5834ZM10.8572 3.44187C10.5238 2.81941 10.0953 3.10013 9.77384 3.18556C6.61908 3.97889 4.39289 5.87067 3.28575 9.05619C3.22623 9.23926 3.36908 9.48336 3.42861 9.70306C3.57146 9.55659 3.78575 9.43454 3.84527 9.25147C4.88099 6.20021 7.03575 4.4793 9.98813 3.66156C10.25 3.58833 10.5119 3.5273 10.8572 3.44187Z" fill="#2F2E2E"/>
<path d="M13.0833 1.15948C13.0714 1.78194 12.5952 2.28234 12 2.28234C11.369 2.28234 10.8929 1.78194 10.9048 1.12286C10.9048 0.500407 11.3809 0.012205 11.9881 0C12.619 0 13.0952 0.500407 13.0833 1.15948Z" fill="#2F2E2E"/>
<path d="M10.8571 3.44182C10.5118 3.52725 10.2499 3.58828 9.98803 3.66151C7.03565 4.47925 4.86898 6.20016 3.84517 9.25142C3.78565 9.4345 3.57136 9.55655 3.42851 9.70301C3.38089 9.48332 3.22613 9.22701 3.28565 9.05614C4.38089 5.88283 6.61898 3.99105 9.77375 3.18551C10.1071 3.10008 10.5237 2.80716 10.8571 3.44182Z" fill="white"/>
<path d="M23.1429 15H0.857143C0.380952 15 0 14.6094 0 14.1212C0 13.633 0.380952 13.2424 0.857143 13.2424H23.1429C23.619 13.2424 24 13.633 24 14.1212C24 14.5972 23.619 15 23.1429 15Z" fill="#2F2E2E"/>
</g>
<defs>
<clipPath id="clip0_280_992">
<rect width="24" height="15" fill="white"/>
</clipPath>
</defs>
</svg>
