<svg width="21" height="20" viewBox="0 0 21 20" fill="none" xmlns="http://www.w3.org/2000/svg">
<g id="Frame" clip-path="url(#clip0_191_979)">
<g id="Group">
<path id="Vector" d="M13.8489 14.0117C13.3508 13.3474 12.8589 12.689 12.3546 12.019C11.8197 12.4579 11.3154 12.92 10.762 13.3128C10.3807 13.5785 10.3008 13.8326 10.4238 14.2658C10.719 15.3055 10.9342 16.3567 11.1986 17.4021C11.2601 17.6447 11.217 17.8122 10.9957 17.9624C10.5468 18.2743 10.1102 18.6035 9.66129 18.927C9.35998 19.1465 9.23084 19.1407 8.97258 18.8865C8.15473 18.0952 7.33689 17.2982 6.52519 16.5011C6.46985 16.4491 6.42681 16.3914 6.39606 16.3509C5.96562 16.5242 5.57207 16.6917 5.17237 16.8303C4.85261 16.9401 4.5267 17.0094 4.18234 16.917C3.32146 16.6859 2.87871 15.9408 3.14313 15.0975C3.30916 14.5835 3.54283 14.0868 3.7519 13.5785C3.59817 13.4283 3.42599 13.255 3.24766 13.0875C2.50361 12.4117 1.75341 11.736 1.00935 11.0544C0.769534 10.8349 0.763385 10.7078 0.966308 10.4595C1.32296 10.0263 1.69191 9.59886 2.03627 9.15989C2.18385 8.97506 2.34988 8.92886 2.5774 8.98084C3.82569 9.25231 5.07398 9.51223 6.32227 9.78947C6.5006 9.8299 6.60513 9.8068 6.73427 9.66817C7.17086 9.17722 7.63205 8.69782 8.08094 8.21842C8.12399 8.17221 8.16703 8.12023 8.22852 8.05669C7.58901 7.62927 6.95564 7.21341 6.30382 6.78021C6.36531 6.72245 6.41451 6.67047 6.4637 6.61849C7.82883 5.33623 9.19395 4.05975 10.5529 2.77172C10.6636 2.66776 10.7558 2.63888 10.9096 2.68508C11.629 2.91612 12.3546 3.12405 13.0741 3.34931C13.2032 3.38975 13.2832 3.36664 13.3816 3.28578C13.9473 2.81793 14.4946 2.33275 15.091 1.89956C15.7613 1.41438 16.5238 1.13136 17.3908 1.11981C18.9773 1.0967 20.6192 2.74284 19.7829 4.59691C19.5308 5.16295 19.1557 5.65391 18.7068 6.09288C18.3317 6.45676 17.9627 6.82642 17.5815 7.17875C17.4831 7.27117 17.4646 7.35781 17.5077 7.4791C17.7659 8.20109 18.0181 8.92886 18.2702 9.65662C18.3071 9.75481 18.3194 9.83568 18.221 9.92232C16.7944 11.2566 15.3678 12.5966 13.9473 13.9308C13.9104 13.9655 13.8858 13.9828 13.8489 14.0117Z" fill="#F7AA20"/>
<path id="Vector_2" d="M18.8359 11.3489C18.9773 11.7533 19.1126 12.146 19.2479 12.5446C19.5123 13.3128 19.7767 14.081 20.0534 14.8434C20.1764 15.1899 20.1088 15.4729 19.8321 15.7271C19.1372 16.3682 18.4485 17.0209 17.7598 17.6678C17.3355 18.0663 16.8559 18.0259 16.5115 17.5696C15.915 16.7725 15.3185 15.9812 14.7344 15.1957C16.1056 13.9134 17.4585 12.6427 18.8359 11.3489Z" fill="#F7AA20"/>
<path id="Vector_3" d="M9.0895 2.13665C7.73052 3.41313 6.39 4.67229 5.03717 5.94876C4.63132 5.68307 4.21318 5.40583 3.79503 5.12858C3.41378 4.87444 3.02638 4.62608 2.64513 4.37194C2.19624 4.07159 2.15934 3.60952 2.54674 3.24563C3.2539 2.56985 3.96721 1.90562 4.68052 1.23561C4.89574 1.03345 5.14786 0.941039 5.43687 1.02768C6.65441 1.39156 7.86581 1.767 9.0895 2.13665Z" fill="#F7AA20"/>
</g>
</g>
<defs>
<clipPath id="clip0_191_979">
<rect width="19.3024" height="18.096" fill="white" transform="translate(0.8125 0.992737)"/>
</clipPath>
</defs>
</svg>
