<svg width="24" height="21" viewBox="0 0 24 21" fill="none" xmlns="http://www.w3.org/2000/svg">
<g id="Frame" clip-path="url(#clip0_191_966)">
<g id="Group">
<path id="Vector" d="M8.54441 2.81361C8.54441 2.35991 8.54441 1.94641 8.54441 1.52717C8.54441 1.06772 8.86121 0.786316 9.3892 0.786316C11.1382 0.786316 12.8872 0.786316 14.6362 0.786316C15.1575 0.786316 15.4809 1.06772 15.4809 1.52717C15.4809 1.94067 15.4809 2.35991 15.4809 2.80787C15.5865 2.80787 15.6789 2.80787 15.7779 2.80787C17.4213 2.80787 19.0581 2.80787 20.7015 2.80787C21.3087 2.80787 21.6123 3.07779 21.6189 3.60041C21.6189 4.53078 21.6453 5.46689 21.6123 6.39727C21.5793 7.33913 21.1239 8.06849 20.0745 8.44179C19.9029 8.49922 19.9425 8.6026 19.9425 8.70023C19.9425 11.566 19.9491 14.426 19.9359 17.2918C19.9293 18.4749 19.2825 19.3363 18.0549 19.8302C17.6787 19.9796 17.2299 20.0657 16.8141 20.0714C13.6198 20.0887 10.432 20.0887 7.23763 20.0772C5.50185 20.0714 4.10926 18.8424 4.10266 17.3205C4.09606 14.4548 4.09606 11.5947 4.10266 8.72894C4.10266 8.55665 4.04986 8.47625 3.86506 8.39585C2.92787 8.00532 2.40648 7.37358 2.41968 6.44321C2.42628 5.48987 2.41968 4.53652 2.41968 3.57743C2.41968 3.07779 2.73648 2.80787 3.31067 2.80787C4.96065 2.80787 6.61063 2.80787 8.26062 2.80787C8.33982 2.81361 8.42561 2.81361 8.54441 2.81361ZM12.0028 11.5373C10.8478 11.5373 9.6928 11.5373 8.53781 11.5373C7.48183 11.5373 6.82843 12.1059 6.82843 13.0305C6.82843 14.1217 6.82843 15.2128 6.82843 16.304C6.82843 17.2172 7.49502 17.7972 8.54441 17.7972C10.8544 17.7972 13.1644 17.7972 15.4743 17.7972C16.5369 17.7972 17.1969 17.2172 17.1969 16.2868C17.1969 15.2014 17.1969 14.1217 17.1969 13.0362C17.1969 12.1001 16.5435 11.5373 15.4677 11.5373C14.3128 11.5373 13.1578 11.5373 12.0028 11.5373ZM13.1512 4.19768C13.1512 4.50781 13.1512 4.8007 13.1512 5.0936C13.1512 6.30538 13.1446 7.51716 13.1578 8.72894C13.1644 9.4698 13.7518 10.0269 14.5438 10.0843C15.3621 10.1475 16.0287 9.711 16.1937 9.00461C16.2267 8.86103 16.2267 8.70597 16.2267 8.55665C16.2267 7.17832 16.2267 5.80573 16.2267 4.4274C16.2267 4.35275 16.2201 4.27809 16.2135 4.19194C15.1971 4.19768 14.194 4.19768 13.1512 4.19768ZM7.78542 4.19768C7.78542 4.73179 7.78542 5.24866 7.78542 5.76553C7.78542 6.79354 7.76562 7.8158 7.80522 8.83806C7.83822 9.74546 8.84801 10.3083 9.838 10.0154C10.4782 9.82586 10.8676 9.32622 10.8676 8.66003C10.8742 7.22427 10.8676 5.79425 10.8676 4.35849C10.8676 4.3068 10.8544 4.24937 10.8478 4.19194C9.8314 4.19768 8.82821 4.19768 7.78542 4.19768ZM13.8838 2.80212C13.8838 2.57814 13.8838 2.38288 13.8838 2.18187C12.6232 2.18187 11.3824 2.18187 10.1416 2.18187C10.1416 2.39437 10.1416 2.59537 10.1416 2.80212C11.3956 2.80212 12.6298 2.80212 13.8838 2.80212Z" fill="#F7AA20"/>
<path id="Vector_2" d="M2.73634 9.86035C2.73634 12.3988 2.73634 14.9142 2.73634 17.4297C1.73315 17.5043 0.703563 16.729 0.578165 15.8159C0.564965 15.724 0.551765 15.6321 0.551765 15.5345C0.551765 14.2768 0.538565 13.019 0.551765 11.767C0.564965 10.7333 1.46256 9.91778 2.61094 9.86035C2.64394 9.86035 2.67694 9.86035 2.73634 9.86035Z" fill="#F7AA20"/>
<path id="Vector_3" d="M21.2756 17.4469C21.2756 14.9142 21.2756 12.3987 21.2756 9.84308C21.4604 9.86605 21.6386 9.87754 21.8036 9.91774C22.7738 10.136 23.4404 10.8424 23.4536 11.7096C23.4668 13.0018 23.4734 14.2939 23.4536 15.5804C23.4404 16.6314 22.523 17.4009 21.2756 17.4469Z" fill="#F7AA20"/>
<path id="Vector_4" d="M15.6063 16.4074C13.1973 16.4074 10.8147 16.4074 8.42554 16.4074C8.42554 15.2473 8.42554 14.0929 8.42554 12.9271C8.52454 12.9213 8.61033 12.9156 8.70273 12.9156C10.9137 12.9156 13.1181 12.9156 15.3291 12.9099C15.5535 12.9099 15.6195 12.9558 15.6195 13.1568C15.6063 14.1618 15.6129 15.1669 15.6129 16.1662C15.6063 16.2408 15.6063 16.3155 15.6063 16.4074Z" fill="#F7AA20"/>
</g>
</g>
<defs>
<clipPath id="clip0_191_966">
<rect width="22.9216" height="19.3024" fill="white" transform="translate(0.545166 0.786316)"/>
</clipPath>
</defs>
</svg>
