<svg width="23" height="27" viewBox="0 0 23 27" fill="none" xmlns="http://www.w3.org/2000/svg">
<g clip-path="url(#clip0_280_1004)">
<path d="M5.12019 6.42707C5.26998 2.52677 8.22499 -0.0139222 11.534 -0.000188741C14.9384 0.0135447 17.7573 2.6641 17.8798 6.37214C18.0568 6.38587 18.2475 6.42707 18.4517 6.42707C19.1054 6.44081 19.7726 6.41334 20.4263 6.44081C21.9242 6.49574 22.9864 7.55322 22.9864 9.0639C23 14.1728 23 19.2679 22.9864 24.3767C22.9864 25.9149 21.8834 26.9861 20.3446 26.9998C14.4482 27.0135 8.53819 27.0135 2.6418 26.9998C1.10302 26.9998 0.0136175 25.9286 0 24.3905C0 19.2816 0 14.1728 0.0136175 9.0639C0.0136175 7.51202 1.0894 6.46828 2.6418 6.42707C3.45885 6.41334 4.26229 6.42707 5.12019 6.42707ZM5.16104 9.0227C5.07934 12.6895 8.22499 15.656 11.9426 15.45C15.238 15.2714 18.2066 12.0303 17.7845 9.00897C17.3896 9.00897 16.9811 9.00897 16.5861 9.00897C16.1912 9.00897 15.7827 9.00897 15.4014 9.00897C14.775 11.5634 13.6039 12.8406 11.7519 12.8269C10.9757 12.8269 10.1314 12.5797 9.45056 12.2089C8.2386 11.5497 7.76199 10.3548 7.65305 9.0227C6.79515 9.0227 6.00533 9.0227 5.16104 9.0227ZM15.3333 6.38587C15.1563 4.02372 13.4405 2.43064 11.2617 2.5405C9.27353 2.65037 7.63943 4.39452 7.6939 6.38587C10.2268 6.38587 12.7596 6.38587 15.3333 6.38587Z" fill="#2F2E2E"/>
</g>
<defs>
<clipPath id="clip0_280_1004">
<rect width="23" height="27" fill="white"/>
</clipPath>
</defs>
</svg>
