<svg width="20" height="21" viewBox="0 0 20 21" fill="none" xmlns="http://www.w3.org/2000/svg">
<g id="Frame" clip-path="url(#clip0_191_972)">
<g id="Group">
<path id="Vector" d="M7.94849 18.6866C7.94849 18.5697 7.94849 18.4763 7.94849 18.3828C7.94849 13.1483 7.94849 7.91371 7.94849 2.67917C7.94849 1.22449 9.48099 0.336484 10.7929 1.0317C11.4369 1.37638 11.6873 1.95475 11.6992 2.63244C11.7171 3.46202 11.7052 4.29744 11.7052 5.12702C11.7052 9.54951 11.7052 13.9778 11.7052 18.4003C11.7052 18.488 11.7052 18.5756 11.7052 18.6807C12.224 18.6807 12.7309 18.6807 13.2377 18.6807C13.3272 18.6807 13.4166 18.6749 13.506 18.6866C13.8638 18.7333 14.1322 19.0546 14.1202 19.4052C14.1083 19.7499 13.8281 20.042 13.4703 20.077C13.4285 20.0829 13.3808 20.0829 13.3391 20.0829C11.0016 20.0829 8.6581 20.0829 6.32058 20.0829C5.75409 20.0829 5.39631 19.6155 5.58713 19.1306C5.69446 18.8502 5.95087 18.6866 6.29077 18.6807C6.82744 18.6807 7.37008 18.6866 7.94849 18.6866Z" fill="#F7AA20"/>
<path id="Vector_2" d="M12.7905 7.90784C12.7905 6.5992 12.7905 5.31394 12.7905 3.99946C12.874 3.99362 12.9575 3.98778 13.035 3.98778C14.3528 3.98778 15.6707 3.98778 16.9885 3.98193C17.1853 3.98193 17.3403 4.03451 17.4954 4.16304C18.0678 4.64209 18.6462 5.10946 19.2246 5.58267C19.5645 5.85725 19.5586 6.05004 19.2246 6.31878C18.6343 6.79784 18.0499 7.28857 17.4536 7.75594C17.3523 7.83773 17.2032 7.902 17.078 7.90784C15.6826 7.91952 14.2932 7.91368 12.8979 7.91368C12.868 7.91368 12.8442 7.91368 12.7905 7.90784Z" fill="#F7AA20"/>
<path id="Vector_3" d="M12.7905 13.5163C12.7905 12.2135 12.7905 10.9166 12.7905 9.59624C12.88 9.59624 12.9635 9.59624 13.041 9.59624C14.3528 9.59624 15.6647 9.60208 16.9766 9.59039C17.1853 9.59039 17.3463 9.64881 17.5013 9.77734C18.0738 10.2564 18.6582 10.7238 19.2306 11.197C19.5586 11.4657 19.5526 11.6585 19.2306 11.9214C18.6403 12.4005 18.0559 12.8853 17.4596 13.3586C17.3582 13.4404 17.2091 13.5105 17.0839 13.5105C15.6886 13.5221 14.2992 13.5163 12.9038 13.5163C12.874 13.5221 12.8382 13.5163 12.7905 13.5163Z" fill="#F7AA20"/>
<path id="Vector_4" d="M6.81557 4.00535C6.81557 5.3023 6.81557 6.59341 6.81557 7.90204C6.73805 7.90788 6.6665 7.91373 6.59494 7.91373C5.27711 7.91373 3.95928 7.91373 2.64144 7.91957C2.45659 7.91957 2.31348 7.86699 2.17633 7.75015C1.58599 7.25941 0.989682 6.77451 0.393378 6.28962C0.113115 6.06177 0.107152 5.8573 0.387415 5.62361C1.00161 5.11535 1.62176 4.61293 2.24192 4.11635C2.33137 4.04624 2.46852 3.99366 2.58778 3.99366C3.95331 3.98782 5.31289 3.98782 6.67842 3.98782C6.72016 3.98198 6.76191 3.99366 6.81557 4.00535Z" fill="#F7AA20"/>
<path id="Vector_5" d="M6.81558 13.5222C6.72613 13.5222 6.66054 13.5222 6.59494 13.5222C5.27711 13.5222 3.95928 13.528 2.64145 13.5163C2.49237 13.5163 2.31944 13.4521 2.20018 13.3644C1.58599 12.8795 0.983722 12.3771 0.375491 11.8864C0.119081 11.676 0.113118 11.4657 0.369528 11.2496C0.995648 10.7296 1.62177 10.2155 2.25981 9.71309C2.3433 9.64299 2.47448 9.60209 2.58778 9.60209C3.95332 9.59625 5.31289 9.59625 6.67843 9.59625C6.72017 9.59625 6.76191 9.60794 6.81558 9.61962C6.81558 10.9107 6.81558 12.2018 6.81558 13.5222Z" fill="#F7AA20"/>
</g>
</g>
<defs>
<clipPath id="clip0_191_972">
<rect width="19.3024" height="19.3024" fill="white" transform="translate(0.178711 0.786316)"/>
</clipPath>
</defs>
</svg>
