<svg width="28" height="19" viewBox="0 0 28 19" fill="none" xmlns="http://www.w3.org/2000/svg">
<g clip-path="url(#clip0_280_999)">
<path d="M0 0C0.856727 0 1.63186 0 2.48859 0C2.48859 3.80544 2.48859 7.5701 2.48859 11.3755C5.90189 11.3755 9.24721 11.3755 12.6741 11.3755C12.6741 8.4535 12.6741 5.53147 12.6741 2.5279C14.4556 2.5279 16.1418 2.5279 17.8417 2.5279C19.5007 2.5279 21.1462 2.5279 22.8052 2.5279C25.729 2.54149 27.9184 4.59371 27.9728 7.50215C28.0408 11.1717 28 14.8412 28 18.4971C28 18.6466 27.9592 18.8097 27.932 18.9864C27.1297 18.9864 26.3409 18.9864 25.4842 18.9864C25.4842 17.7361 25.4842 16.4993 25.4842 15.2353C17.8009 15.2353 10.1991 15.2353 2.52938 15.2353C2.52938 16.4721 2.52938 17.6953 2.52938 18.9728C1.64546 18.9728 0.843128 18.9728 0.0135988 18.9728C0 12.6667 0 6.36051 0 0Z" fill="#2F2E2E"/>
<path d="M7.57458 2.54159C9.72319 2.528 11.423 4.18608 11.4366 6.31984C11.4502 8.35847 9.70959 10.1253 7.65617 10.1661C5.56195 10.1932 3.8213 8.44001 3.8077 6.33343C3.7941 4.21326 5.43956 2.55518 7.57458 2.54159Z" fill="#2F2E2E"/>
</g>
<defs>
<clipPath id="clip0_280_999">
<rect width="28" height="19" fill="white"/>
</clipPath>
</defs>
</svg>
